PathFileType	4	(X/Y/Z)	Patient4_TMGait_0pt8_01_left_32.trc.trc
DataRate	CameraRate	NumFrames	NumMarkers	Units	OrigDataRate	OrigDataStartFrame	OrigNumFrames
88.050314465409	88.050314465409	4	33	mm	88.050314465409	89	       141
Frame#	Time	Sacral			L.Shoulder			Chest			R.Shoulder			Neck			R.ASIS			L.ASIS			R.Thigh.Superior			R.Thigh.Lateral			R.Thigh.Inferior			R.Patella			L.Thigh.Superior			L.Thigh.Lateral			L.Thigh.Inferior			L.Patella			L.Shank.Superior			L.Shank.Lateral			L.Shank.Inferior			R.Shank.Superior			R.Shank.Lateral			R.Shank.Inferior			R.Heel			R.Midfoot.Superior			R.Midfoot.Lateral			R.Toe			L.Heel			L.Midfoot.Lateral			L.Midfoot.Superior			L.Toe			L.Elbow			L.Wrist			R.Elbow			R.Wrist			
		X1	Y1	Z1	X2	Y2	Z2	X3	Y3	Z3	X4	Y4	Z4	X5	Y5	Z5	X6	Y6	Z6	X7	Y7	Z7	X8	Y8	Z8	X9	Y9	Z9	X10	Y10	Z10	X11	Y11	Z11	X12	Y12	Z12	X13	Y13	Z13	X14	Y14	Z14	X15	Y15	Z15	X16	Y16	Z16	X17	Y17	Z17	X18	Y18	Z18	X19	Y19	Z19	X20	Y20	Z20	X21	Y21	Z21	X22	Y22	Z22	X23	Y23	Z23	X24	Y24	Z24	X25	Y25	Z25	X26	Y26	Z26	X27	Y27	Z27	X28	Y28	Z28	X29	Y29	Z29	X30	Y30	Z30	X31	Y31	Z31	X32	Y32	Z32	X33	Y33	Z33	

89	36.209428571429	845.196842464324	995.925868173766	483.287346726769	1042.111915132312	1427.958612397780	318.299175089831	1133.359999972644	1351.266471623994	483.665862031969	1039.038601456176	1421.900273201395	653.266360944590	1019.741644747682	1484.381782372612	474.601289194633	1070.724062981849	936.779165343191	610.165448705491	1060.608067928841	948.011593164081	335.209017977144	1138.555035557737	751.959908062942	584.359904867617	1069.236182610322	633.103147080363	640.079935971663	1158.656186268817	592.321635706905	565.896649105414	1170.863730493205	503.592760898271	572.834356679335	1085.887344311669	724.619665089334	353.146188146616	987.240584789969	616.759764004136	287.695648497262	1069.782106794974	524.845129874844	340.758886759902	1054.148711916764	439.667344191402	337.457491218918	978.836314697499	388.047208379430	335.793601179056	832.317633064198	359.947316898995	294.348325378177	808.815803198792	234.797182253257	353.921912514541	1150.259308910906	412.459491745946	577.887679462461	1085.247594100774	301.277763040054	634.269346854344	1142.514116660562	212.066700919695	573.635790405572	1024.590829333866	41.986120609554	534.869076353752	1194.328722303464	99.092526244346	573.038519037025	1107.408479306511	36.931894900260	610.745072101510	1314.835306683156	50.089626625111	600.546094666639	613.310829272638	184.421732663351	402.476710512867	663.981062738786	137.759707968556	318.734295078631	770.427673659850	140.376953062425	335.123930276667	840.298966269296	34.027719881577	301.531355951427	1079.237655879202	1090.862204991858	176.233379184880	1327.847669353719	1027.753251534407	203.383914583216	911.415873924277	1092.662507188509	745.432568021332	897.843787339456	833.759581111641	763.547162270702	
90	36.220785714286	844.818653660906	997.802996383730	486.752349061924	1039.713429303348	1430.120394378125	320.658992226982	1133.004195209221	1353.052891555356	484.741987162169	1040.751410039055	1423.202648570422	655.558104675261	1019.404016622586	1486.157066050260	477.364520944515	1071.395071884967	938.540047655065	611.215070062573	1058.928427310642	949.981174165539	336.483945837867	1136.143201976261	751.111894540535	586.958501510597	1064.610723797799	633.511322758972	641.652311314037	1153.544099303590	591.546294000838	567.445530323115	1164.330350588218	502.954779138015	573.946602759916	1090.577012221816	728.695343223327	353.830417594494	996.151085200832	618.136934853995	287.983074996163	1082.168326666280	528.332939535098	340.261632864042	1068.199888826193	441.969974097802	336.436355720728	991.414032158621	390.201800669811	335.409125867252	843.651855365938	366.356827678426	295.114494054532	817.048943871452	241.881900925339	354.786289308181	1143.016689796876	412.193479315900	579.087105144243	1077.123912842388	301.382805574940	635.119754016734	1133.970629114422	211.936600823154	574.378279773398	1015.495075309327	41.918829709571	535.128094533146	1185.128828323482	99.087291184858	573.308796860926	1098.278903344852	36.891143212901	610.978378021248	1305.659412941844	50.311170689692	600.836362919437	620.362872601079	198.715173171455	404.755533538408	668.675820021475	150.355472620664	320.401704963465	775.621399856987	148.145906209659	336.179702330008	840.407812028439	36.271272138251	301.351480623591	1071.140845014050	1090.816784955046	181.157263671317	1316.273806196826	1012.008692112939	205.553611687094	920.949370865409	1090.670383832938	749.582556291498	919.953861545954	831.147576877916	767.043645073465	
91	36.232142857143	844.312288065325	999.632433473312	490.138314353372	1036.943730519996	1432.120457639625	322.863014966154	1132.467916513502	1354.764705603295	485.553073541798	1042.460736214411	1424.369817346475	657.702967525684	1018.913355163593	1487.816499153937	480.014576370396	1071.900569244648	940.157323759317	612.113972880461	1057.146148843557	951.784510948972	337.556005278690	1133.349318046528	750.196851341154	589.309151626601	1059.787176023325	633.863847298675	643.177718328742	1148.074318924168	590.727493459283	568.823975055202	1157.411932865139	502.315013527462	574.997547990221	1095.028821199632	733.060745315604	354.359373730447	1004.799778897305	620.064984034619	288.004463245891	1094.125454853517	532.494717797602	339.529308052676	1082.042684331850	445.065315160791	335.181770831559	1004.178493630249	392.930945277877	334.742495921179	855.410304611668	372.506086716167	295.686249438791	826.455628465816	248.600329741542	355.474573576641	1135.506616487501	411.920029303592	580.207078768826	1068.850603631772	301.439472558118	635.918090440440	1125.323068553562	211.804769034505	575.065305662249	1006.354550206908	41.878990841347	535.357680861136	1175.951318087069	99.037683763764	573.540148991569	1089.112728454623	36.821166586374	611.160677943440	1296.477272765497	50.379550599563	601.041271546231	629.140310810181	211.035603627356	407.024917919706	675.385486954664	161.522347880186	322.029224114484	782.612710243147	155.590113145701	337.080557003391	843.309301058657	39.290806348144	300.957268432192	1062.939022619308	1090.743851290242	185.974768395214	1303.384118016584	995.857245545127	207.632179891148	930.998670435959	1088.654952466406	753.663937941722	943.125863768537	829.095674004441	770.320027475491	
92	36.243500000000	843.695309697346	1001.386556659358	493.409991469757	1033.916414295495	1433.925182812536	324.891854339797	1131.784544814702	1356.364416892758	486.122507156494	1044.154347620823	1425.416851109971	659.675201102873	1018.307710991248	1489.352058272457	482.501366467869	1072.228445709709	941.634329864187	612.933325266113	1055.302035927880	953.405040843453	338.486765605243	1130.279782393563	749.322834658824	591.323119933539	1054.924697676500	634.200237341641	644.655981196689	1142.401322262453	589.912535687346	570.039071100969	1150.278045014378	501.702095024354	575.999755655352	1099.181514204395	737.685554065211	354.785797226389	1013.093909404561	622.526179143036	287.780880351837	1105.560504345547	537.298022268453	338.561392721295	1095.571371162177	448.931025031185	333.659211316348	1017.042243285765	396.194106532053	333.771074400501	867.484093602990	378.218776479873	296.017873817955	837.042324178799	254.702285300747	355.901539583061	1127.874767121867	411.654828999933	581.247949615448	1060.546830147345	301.481252550202	636.681732229062	1116.643556245846	211.680168278265	575.698900008815	997.180000762799	41.873273911405	535.569950422901	1166.807428415453	98.967845623863	573.748631784845	1079.922996267826	36.739847760843	611.305734340031	1287.296250330941	50.321539892373	601.172543136001	639.566413420492	220.934011032334	409.133511055532	684.123139940142	170.797228153879	323.488482739459	791.486892038472	162.343688959703	337.716661267309	849.240821839267	42.868973080488	300.305814643155	1054.623093070436	1090.595805200922	190.661539026409	1289.086619500524	979.484165955787	209.610025082593	941.596686575952	1086.646444058621	757.612972103450	967.252188781424	827.724761415275	773.333542633078	
